<mxfile host="app.diagrams.net" modified="2024-07-18T08:25:40.878Z" agent="Mozilla/5.0 (Windows NT 10.0; Win64; x64) AppleWebKit/537.36 (KHTML, like Gecko) Chrome/126.0.0.0 Safari/537.36 Edg/126.0.0.0" version="24.7.1" etag="YojrR7UKnd6L5-1OHbhW" type="github">
  <diagram name="Page-1" id="zENQT1LEqpFFCxKr47iw">
    <mxGraphModel dx="1422" dy="794" grid="1" gridSize="10" guides="1" tooltips="1" connect="1" arrows="1" fold="1" page="1" pageScale="1" pageWidth="827" pageHeight="1169" math="0" shadow="0">
      <root>
        <mxCell id="0" />
        <mxCell id="1" parent="0" />
        <mxCell id="2" value="Client Layer" style="rounded=0;whiteSpace=wrap;html=1;" vertex="1" parent="1">
          <mxGeometry x="40" y="40" width="120" height="60" as="geometry" />
        </mxCell>
        <mxCell id="3" value="API Gateway" style="rounded=0;whiteSpace=wrap;html=1;" vertex="1" parent="1">
          <mxGeometry x="240" y="40" width="120" height="60" as="geometry" />
        </mxCell>
        <mxCell id="4" value="Payment Microservice" style="rounded=0;whiteSpace=wrap;html=1;" vertex="1" parent="1">
          <mxGeometry x="440" y="40" width="120" height="60" as="geometry" />
        </mxCell>
        <mxCell id="5" value="Message Queue (RabbitMQ)" style="rounded=0;whiteSpace=wrap;html=1;" vertex="1" parent="1">
          <mxGeometry x="440" y="140" width="120" height="60" as="geometry" />
        </mxCell>
        <mxCell id="6" value="Database (MongoDB)" style="shape=cylinder3;whiteSpace=wrap;html=1;boundedLbl=1;size=15;" vertex="1" parent="1">
          <mxGeometry x="640" y="30" width="60" height="80" as="geometry" />
        </mxCell>
        <mxCell id="7" value="M-Pesa API" style="ellipse;shape=cloud;whiteSpace=wrap;html=1;" vertex="1" parent="1">
          <mxGeometry x="620" y="140" width="120" height="80" as="geometry" />
        </mxCell>
        <mxCell id="8" value="Square API" style="ellipse;shape=cloud;whiteSpace=wrap;html=1;" vertex="1" parent="1">
          <mxGeometry x="620" y="240" width="120" height="80" as="geometry" />
        </mxCell>
        <mxCell id="9" value="Redis Cache" style="shape=cylinder3;whiteSpace=wrap;html=1;boundedLbl=1;size=15;" vertex="1" parent="1">
          <mxGeometry x="470" y="240" width="60" height="80" as="geometry" />
        </mxCell>
        <mxCell id="10" value="Monitoring &amp; Logging (ELK Stack)" style="rounded=0;whiteSpace=wrap;html=1;" vertex="1" parent="1">
          <mxGeometry x="240" y="240" width="120" height="60" as="geometry" />
        </mxCell>
        <mxCell id="11" value="Authentication Service" style="rounded=0;whiteSpace=wrap;html=1;" vertex="1" parent="1">
          <mxGeometry x="240" y="140" width="120" height="60" as="geometry" />
        </mxCell>
        <mxCell id="12" value="" style="endArrow=classic;startArrow=classic;html=1;rounded=0;exitX=1;exitY=0.5;exitDx=0;exitDy=0;entryX=0;entryY=0.5;entryDx=0;entryDy=0;" edge="1" parent="1" source="2" target="3">
          <mxGeometry width="50" height="50" relative="1" as="geometry">
            <mxPoint x="390" y="430" as="sourcePoint" />
            <mxPoint x="440" y="380" as="targetPoint" />
          </mxGeometry>
        </mxCell>
        <mxCell id="13" value="" style="endArrow=classic;startArrow=classic;html=1;rounded=0;exitX=1;exitY=0.5;exitDx=0;exitDy=0;entryX=0;entryY=0.5;entryDx=0;entryDy=0;" edge="1" parent="1" source="3" target="4">
          <mxGeometry width="50" height="50" relative="1" as="geometry">
            <mxPoint x="390" y="430" as="sourcePoint" />
            <mxPoint x="440" y="380" as="targetPoint" />
          </mxGeometry>
        </mxCell>
        <mxCell id="14" value="" style="endArrow=classic;startArrow=classic;html=1;rounded=0;exitX=0.5;exitY=1;exitDx=0;exitDy=0;entryX=0.5;entryY=0;entryDx=0;entryDy=0;" edge="1" parent="1" source="4" target="5">
          <mxGeometry width="50" height="50" relative="1" as="geometry">
            <mxPoint x="390" y="430" as="sourcePoint" />
            <mxPoint x="440" y="380" as="targetPoint" />
          </mxGeometry>
        </mxCell>
        <mxCell id="15" value="" style="endArrow=classic;startArrow=classic;html=1;rounded=0;exitX=1;exitY=0.5;exitDx=0;exitDy=0;entryX=0;entryY=0.5;entryDx=0;entryDy=0;entryPerimeter=0;" edge="1" parent="1" source="4" target="6">
          <mxGeometry width="50" height="50" relative="1" as="geometry">
            <mxPoint x="390" y="430" as="sourcePoint" />
            <mxPoint x="440" y="380" as="targetPoint" />
          </mxGeometry>
        </mxCell>
        <mxCell id="16" value="" style="endArrow=classic;startArrow=classic;html=1;rounded=0;exitX=1;exitY=0.5;exitDx=0;exitDy=0;entryX=0.16;entryY=0.55;entryDx=0;entryDy=0;entryPerimeter=0;" edge="1" parent="1" source="5" target="7">
          <mxGeometry width="50" height="50" relative="1" as="geometry">
            <mxPoint x="390" y="430" as="sourcePoint" />
            <mxPoint x="440" y="380" as="targetPoint" />
          </mxGeometry>
        </mxCell>
        <mxCell id="17" value="" style="endArrow=classic;startArrow=classic;html=1;rounded=0;exitX=1;exitY=0.5;exitDx=0;exitDy=0;entryX=0.16;entryY=0.55;entryDx=0;entryDy=0;entryPerimeter=0;" edge="1" parent="1" source="9" target="8">
          <mxGeometry width="50" height="50" relative="1" as="geometry">
            <mxPoint x="390" y="430" as="sourcePoint" />
            <mxPoint x="440" y="380" as="targetPoint" />
          </mxGeometry>
        </mxCell>
        <mxCell id="18" value="" style="endArrow=classic;startArrow=classic;html=1;rounded=0;exitX=0.5;exitY=0;exitDx=0;exitDy=0;entryX=0.5;entryY=1;entryDx=0;entryDy=0;" edge="1" parent="1" source="10" target="11">
          <mxGeometry width="50" height="50" relative="1" as="geometry">
            <mxPoint x="390" y="430" as="sourcePoint" />
            <mxPoint x="440" y="380" as="targetPoint" />
          </mxGeometry>
        </mxCell>
        <mxCell id="19" value="" style="endArrow=classic;startArrow=classic;html=1;rounded=0;exitX=1;exitY=0.5;exitDx=0;exitDy=0;entryX=0;entryY=0.5;entryDx=0;entryDy=0;" edge="1" parent="1" source="11" target="4">
          <mxGeometry width="50" height="50" relative="1" as="geometry">
            <mxPoint x="390" y="430" as="sourcePoint" />
            <mxPoint x="440" y="380" as="targetPoint" />
          </mxGeometry>
        </mxCell>
      </root>
    </mxGraphModel>
  </diagram>
</mxfile>
